<?xml version="1.0" encoding="utf-8"?>
<svg id="master-artboard" viewBox="0 0 647.6148681640625 80.44173431396484" version="1.1" xmlns="http://www.w3.org/2000/svg" x="0px" y="0px" style="enable-background:new 0 0 336 235.2;" width="647.6148681640625px" height="80.44173431396484px" xmlns:xlink="http://www.w3.org/1999/xlink"><rect id="ee-background" x="0" y="0" width="647.6148681640625" height="80.44173431396484" style="fill: white; fill-opacity: 0; pointer-events: none;"/>














<g transform="matrix(1.2760416269302368, 0, 0, 1.2760416269302368, -330.27676010131836, -452.03176593443504)"><metadata id="metadata79167">
    
  </metadata><linearGradient spreadMethod="pad" y2="30%" x2="-10%" y1="120%" x1="30%" id="3d_gradient2-logo-7e9ae41d-cdc0-4c93-aa35-24766368795c">
    <stop id="stop79142" stop-opacity="1" stop-color="#ffffff" offset="0%"/>
    <stop id="stop79144" stop-opacity="1" stop-color="#000000" offset="100%"/>
  </linearGradient><linearGradient gradientTransform="rotate(-30)" spreadMethod="pad" y2="30%" x2="-10%" y1="120%" x1="30%" id="3d_gradient3-logo-7e9ae41d-cdc0-4c93-aa35-24766368795c">
    <stop id="stop79147" stop-opacity="1" stop-color="#ffffff" offset="0%"/>
    <stop id="stop79149" stop-opacity="1" stop-color="#cccccc" offset="50%"/>
    <stop id="stop79151" stop-opacity="1" stop-color="#000000" offset="100%"/>
  </linearGradient><g id="logo-group">
    <image id="container" x="272" y="144" width="480" height="480" style="display: none;" transform="translate(0 0)" xlink:href=""/>
    <g id="logo-center" transform="translate(0 0)">
      <image id="icon_container" style="display: none;" xlink:href=""/>
      <g id="slogan" style="font-style:normal;font-weight:500;font-size:32px;line-height:1;font-family:Montserrat;font-variant-ligatures:none;text-align:center;text-anchor:middle" transform="translate(0 0)"/>
      <g id="title" style="font-style:normal;font-weight:normal;font-size:72px;line-height:1;font-family:Cunia;font-variant-ligatures:none;text-align:center;text-anchor:middle" transform="translate(0 0)">
        <path id="path79170" style="font-style:normal;font-weight:normal;font-size:72px;line-height:1;font-family:Cunia;font-variant-ligatures:none;text-align:center;text-anchor:middle" d="m 281.77438,-2.016 v -42.12 q 0,-1.368 0.50399,-2.52 0.576,-1.152 1.44,-1.944 0.86401,-0.864 2.016,-1.296 1.152,-0.504 2.304,-0.504 h 28.872 q 0.72001,0 1.296,0.576 0.576,0.576 0.576,1.296 v 7.632 q 0,0.792 -0.576,1.224 -0.50399,0.504 -1.296,0.504 h -25.92 q 1.584,0 2.73601,1.152 1.22399,1.152 1.22399,2.736 v 6.12 h 17.28 q 1.872,0 1.872,1.872 v 7.56 q 0,0.864 -0.50399,1.368 -0.504,0.432 -1.36801,0.432 h -21.24 q 1.44001,0 2.66401,1.08 1.29599,1.08 1.29599,2.736 v 12.096 q 0,0.792 -0.504,1.296 -0.432,0.504 -1.296,0.504 h -9.576 q -0.792,0 -1.296,-0.504 -0.50399,-0.504 -0.50399,-1.296 z" stroke-width="0" stroke-linejoin="miter" stroke-miterlimit="2" fill="#0d2468" stroke="#0d2468" transform="translate(0 308.08) translate(261.613255 50.72) scale(1) translate(-281.77438 50.4)"/>
        <path id="path79172" style="font-style:normal;font-weight:normal;font-size:72px;line-height:1;font-family:Cunia;font-variant-ligatures:none;text-align:center;text-anchor:middle" d="m 326.34913,-1.944 v -42.12 q 0,-2.736 1.87199,-4.464 1.872,-1.8 4.39201,-1.8 h 5.76 q 0.86399,0 1.29599,0.504 0.50401,0.504 0.50401,1.296 v 46.584 q 0,0.72 -0.50401,1.224 -0.432,0.576 -1.29599,0.576 h -10.224 q -0.72001,0 -1.29601,-0.504 -0.50399,-0.576 -0.50399,-1.296 z" stroke-width="0" stroke-linejoin="miter" stroke-miterlimit="2" fill="#0d2468" stroke="#0d2468" transform="translate(0 308.08) translate(310.188005 50.791999999999994) scale(1) translate(-326.34913 50.328)"/>
        <path id="path79174" style="font-style:normal;font-weight:normal;font-size:72px;line-height:1;font-family:Cunia;font-variant-ligatures:none;text-align:center;text-anchor:middle" d="m 350.04613,-2.016 v -42.12 q 0,-2.52 1.79999,-4.392 1.8,-1.872 4.464,-1.872 h 2.376 q 0.792,0 1.87201,0.36 1.07999,0.288 2.23199,1.872 4.248,6.624 7.632,11.952 2.08801,3.24 3.24,5.184 1.224,1.872 2.304,3.528 1.08001,1.584 1.8,2.736 0.72001,1.152 0.86401,1.368 0,0.144 0.288,0.144 0.35999,0 0.35999,-0.36 v -20.52 q 0,-2.808 1.944,-4.536 1.94401,-1.728 4.392,-1.728 h 4.608 q 0.792,0 1.296,0.504 0.50401,0.648 0.50401,1.368 v 46.44 q 0,0.648 -0.50401,1.296 -0.57599,0.576 -1.296,0.576 h -8.136 q -1.584,0 -2.448,-1.368 -4.32,-6.624 -7.776,-11.88 -2.08799,-3.168 -3.312,-5.04 -1.224,-1.944 -2.304,-3.528 -1.07999,-1.656 -1.8,-2.736 -0.71999,-1.152 -0.86399,-1.368 -0.21601,-0.216 -0.36001,-0.216 -0.36,0 -0.36,0.36 v 23.976 q 0,0.792 -0.57599,1.296 -0.57601,0.504 -1.29601,0.504 h -9.144 q -0.648,0 -1.224,-0.576 -0.57599,-0.576 -0.57599,-1.224 z" stroke-width="0" stroke-linejoin="miter" stroke-miterlimit="2" fill="#0d2468" stroke="#0d2468" transform="translate(0 308.08) translate(337.885005 50.72) scale(1) translate(-350.04613 50.4)"/>
        <path id="path79176" style="font-style:normal;font-weight:normal;font-size:72px;line-height:1;font-family:Cunia;font-variant-ligatures:none;text-align:center;text-anchor:middle" d="m 397.97675,-0.432 q -0.432,-0.576 -0.432,-1.08 0,-0.504 0.072,-0.648 l 16.704,-45.936 q 0.792,-2.088 2.88,-2.088 h 11.16 q 2.088,0 2.88,2.088 l 16.704,45.936 q 0.072,0.144 0.072,0.648 0,0.576 -0.504,1.08 -0.432,0.432 -1.008,0.432 h -9.288 q -1.8,0 -2.448,-1.584 l -3.744,-10.152 q -2.592,1.008 -5.256,1.656 -2.664,0.648 -5.184,1.008 -2.448,0.288 -4.608,0.432 -2.16,0.072 -3.744,0.072 -1.008,0 -1.728,0 -0.648,0 -1.008,-0.072 1.296,0.216 2.088,1.44 0.864,1.224 0.216,2.88 l -1.008,2.736 Q 410.14475,0 408.34475,0 h -9.288 q -0.504,0 -1.08,-0.432 z m 18.288,-18.432 q 2.016,-0.144 4.176,-0.504 1.872,-0.288 3.888,-0.792 2.088,-0.576 3.96,-1.584 l -5.544,-15.84 z" stroke-width="0" stroke-linejoin="miter" stroke-miterlimit="2" fill="#0d2468" stroke="#0d2468" transform="translate(0 308.08) translate(389.383625 50.936) scale(1) translate(-397.54475 50.184)"/>
        <path id="path79178" style="font-style:normal;font-weight:normal;font-size:72px;line-height:1;font-family:Cunia;font-variant-ligatures:none;text-align:center;text-anchor:middle" d="m 453.82738,-2.016 v -42.12 q 0,-2.52 1.79999,-4.392 1.8,-1.872 4.464,-1.872 h 2.376 q 0.792,0 1.87201,0.36 1.07999,0.288 2.23199,1.872 4.248,6.624 7.632,11.952 2.08801,3.24 3.24,5.184 1.224,1.872 2.304,3.528 1.08001,1.584 1.8,2.736 0.72001,1.152 0.86401,1.368 0,0.144 0.288,0.144 0.35999,0 0.35999,-0.36 v -20.52 q 0,-2.808 1.944,-4.536 1.94401,-1.728 4.392,-1.728 h 4.608 q 0.792,0 1.296,0.504 0.50401,0.648 0.50401,1.368 v 46.44 q 0,0.648 -0.50401,1.296 -0.57599,0.576 -1.296,0.576 h -8.136 q -1.584,0 -2.448,-1.368 -4.32,-6.624 -7.776,-11.88 -2.08799,-3.168 -3.312,-5.04 -1.224,-1.944 -2.304,-3.528 -1.07999,-1.656 -1.8,-2.736 -0.71999,-1.152 -0.86399,-1.368 -0.21601,-0.216 -0.36001,-0.216 -0.36,0 -0.36,0.36 v 23.976 q 0,0.792 -0.57599,1.296 -0.57601,0.504 -1.29601,0.504 h -9.144 q -0.648,0 -1.224,-0.576 -0.57599,-0.576 -0.57599,-1.224 z" stroke-width="0" stroke-linejoin="miter" stroke-miterlimit="2" fill="#0d2468" stroke="#0d2468" transform="translate(0 308.08) translate(449.666255 50.72) scale(1) translate(-453.82738 50.4)"/>
        <path id="path79180" style="font-style:normal;font-weight:normal;font-size:72px;line-height:1;font-family:Cunia;font-variant-ligatures:none;text-align:center;text-anchor:middle" d="m 543.158,-50.4 q 0.792,0 1.296,0.576 0.576,0.504 0.576,1.224 v 8.064 q 0,0.792 -0.576,1.296 -0.504,0.504 -1.296,0.504 h -16.704 q 1.584,0 2.808,1.152 1.296,1.152 1.296,2.592 v 32.976 q 0,0.792 -0.576,1.224 -0.504,0.504 -1.296,0.504 h -10.008 q -0.792,0 -1.296,-0.504 -0.576,-0.432 -0.576,-1.224 v -34.56 q 0,-1.008 -0.648,-1.584 -0.648,-0.576 -1.512,-0.576 h -10.44 q -0.72,0 -1.296,-0.504 -0.576,-0.504 -0.576,-1.296 v -3.672 q 0,-1.368 0.504,-2.52 0.576,-1.152 1.44,-1.944 0.936,-0.864 2.016,-1.296 1.152,-0.432 2.304,-0.432 z" stroke-width="0" stroke-linejoin="miter" stroke-miterlimit="2" fill="#0d2468" stroke="#0d2468" transform="translate(0 308.08) translate(502.172875 50.72) scale(1) translate(-502.334 50.4)"/>
        <path id="path79182" style="font-style:normal;font-weight:normal;font-size:72px;line-height:1;font-family:Cunia;font-variant-ligatures:none;text-align:center;text-anchor:middle" d="m 592.74913,-0.144 h -10.15201 q -2.01599,0 -2.88,-1.872 l -7.344,-14.4 q -0.64799,-1.152 -1.944,-1.152 h -9.432 q 1.80001,0 2.808,1.296 1.08001,1.224 1.08001,2.52 v 11.88 q 0,0.792 -0.50401,1.224 -0.504,0.504 -1.296,0.504 h -9.86399 q -0.72001,0 -1.29601,-0.504 -0.504,-0.576 -0.504,-1.224 v -42.192 q 0,-2.664 1.87201,-4.392 1.87199,-1.8 4.39199,-1.8 h 15.264 q 4.03201,0 7.63201,0.864 3.67199,0.864 6.408,2.808 2.808,1.944 4.46399,5.112 1.656,3.096 1.656,7.632 0,4.32 -1.944,7.776 -1.94399,3.456 -5.76,5.616 -0.576,0.36 -0.648,0.864 0,0.504 0.216,0.792 l 9.072,16.416 q 0.216,0.432 0.216,0.792 0,0.576 -0.504,1.008 -0.432,0.432 -1.00799,0.432 z m -13.53601,-33.768 q 0,-2.952 -1.79999,-4.464 -1.72801,-1.584 -4.53601,-1.584 h -12.384 q 1.80001,0 2.88,1.224 1.08,1.224 1.08,2.592 v 5.832 q 0,0.864 0.57601,1.512 0.648,0.648 1.58399,0.648 h 6.264 q 2.808,0 4.53601,-1.368 1.79999,-1.44 1.79999,-4.392 z" stroke-width="0" stroke-linejoin="miter" stroke-miterlimit="2" fill="#0d2468" stroke="#0d2468" transform="translate(0 308.08) translate(555.259995 50.864) scale(1) translate(-551.42112 50.256)"/>
        <path id="path79184" style="font-style:normal;font-weight:normal;font-size:72px;line-height:1;font-family:Cunia;font-variant-ligatures:none;text-align:center;text-anchor:middle" d="m 597.52363,-0.432 q -0.432,-0.576 -0.432,-1.08 0,-0.504 0.072,-0.648 l 16.70399,-45.936 q 0.792,-2.088 2.88,-2.088 h 11.16001 q 2.088,0 2.88,2.088 l 16.70399,45.936 q 0.072,0.144 0.072,0.648 0,0.576 -0.504,1.08 Q 646.62762,0 646.05163,0 h -9.288 q -1.80001,0 -2.44801,-1.584 l -3.74399,-10.152 q -2.59201,1.008 -5.25601,1.656 -2.664,0.648 -5.184,1.008 -2.448,0.288 -4.60799,0.432 -2.16001,0.072 -3.74401,0.072 -1.008,0 -1.728,0 -0.64799,0 -1.00799,-0.072 1.29599,0.216 2.08799,1.44 0.86401,1.224 0.216,2.88 l -1.008,2.736 Q 609.69163,0 607.89162,0 h -9.288 q -0.504,0 -1.07999,-0.432 z m 18.288,-18.432 q 2.01599,-0.144 4.17599,-0.504 1.87201,-0.288 3.88801,-0.792 2.08799,-0.576 3.96,-1.584 l -5.54401,-15.84 z" stroke-width="0" stroke-linejoin="miter" stroke-miterlimit="2" fill="#0d2468" stroke="#0d2468" transform="translate(0 308.08) translate(604.930505 50.936) scale(1) translate(-597.09163 50.184)"/>
        <path id="path79186" style="font-style:normal;font-weight:normal;font-size:72px;line-height:1;font-family:Cunia;font-variant-ligatures:none;text-align:center;text-anchor:middle" d="m 674.18225,0.72 q -10.296,0 -16.2,-4.968 -5.832,-4.968 -6.192,-14.544 -0.072,-1.944 -0.072,-6.336 0,-4.464 0.072,-6.48 0.36,-9.36 6.264,-14.4 5.976,-5.112 16.128,-5.112 6.408,0 11.448,2.088 5.112,2.088 8.064,6.048 2.952,3.96 3.096,9.36 0,0.648 -0.504,1.08 -0.432,0.432 -1.08,0.432 h -10.224 q -1.008,0 -1.512,-0.36 -0.432,-0.432 -0.792,-1.512 -1.008,-3.528 -3.096,-4.896 -2.016,-1.44 -5.4,-1.44 -8.136,0 -8.424,9.072 -0.072,1.944 -0.072,5.976 0,4.032 0.072,6.12 0.288,9.072 8.424,9.072 3.312,0 5.4,-1.44 2.16,-1.44 3.096,-4.896 0.288,-1.08 0.792,-1.44 0.504,-0.432 1.512,-0.432 h 10.224 q 0.648,0 1.08,0.432 0.504,0.432 0.504,1.08 -0.144,5.4 -3.096,9.36 -2.952,3.96 -8.064,6.048 -5.04,2.088 -11.448,2.088 z" stroke-width="0" stroke-linejoin="miter" stroke-miterlimit="2" fill="#0d2468" stroke="#0d2468" transform="translate(0 308.08) translate(663.557125 50) scale(1) translate(-651.71825 51.12)"/>
        <path id="path79188" style="font-style:normal;font-weight:normal;font-size:72px;line-height:1;font-family:Cunia;font-variant-ligatures:none;text-align:center;text-anchor:middle" d="m 724.22788,-26.424 q 1.29599,0 2.448,0.504 1.15199,0.504 2.01599,1.152 0.93601,0.648 1.58401,1.296 0.64799,0.648 0.93599,0.936 l 15.048,19.944 q 0.288,0.216 0.288,0.864 0,0.576 -0.432,1.008 -0.50399,0.432 -1.15199,0.432 h -11.23201 q -1.872,0 -2.88,-1.368 -3.38399,-4.392 -6.12,-7.92 -1.656,-2.088 -2.664,-3.384 -1.00799,-1.296 -1.872,-2.376 -0.864,-1.152 -1.512,-1.944 -0.57599,-0.792 -0.71999,-1.008 -0.288,-0.144 -0.36,-0.144 -0.36001,0 -0.36001,0.432 v 15.984 q 0,0.792 -0.504,1.296 -0.504,0.432 -1.29599,0.432 h -9.576 q -0.72001,0 -1.29601,-0.432 -0.504,-0.504 -0.504,-1.296 v -42.192 q 0,-2.376 1.72801,-4.248 1.72799,-1.944 4.46399,-1.944 h 5.18401 q 0.79199,0 1.29599,0.504 0.504,0.504 0.504,1.296 v 14.544 q 0,0.36 0.36001,0.36 0.216,0 0.36,-0.144 l 11.952,-15.192 q 0.86399,-1.368 2.808,-1.368 h 10.94399 q 0.576,0 1.08001,0.432 0.432,0.432 0.432,1.008 0,0.72 -0.288,0.864 -3.67201,4.824 -6.62401,8.64 -1.79999,2.304 -2.808,3.672 -1.008,1.368 -1.94399,2.52 -0.864,1.152 -1.51201,1.944 -0.576,0.72 -0.648,0.792 -0.144,0.216 -0.72,0.936 -0.57599,0.648 -1.512,1.368 -0.936,0.72 -2.23199,1.296 -1.22401,0.504 -2.664,0.504 z" stroke-width="0" stroke-linejoin="miter" stroke-miterlimit="2" fill="#0d2468" stroke="#0d2468" transform="translate(0 308.08) translate(719.906745 50.72) scale(1) translate(-704.06787 50.4)"/>
      </g>
      <image id="icon" style="display: none;" x="0" y="0" xlink:href="https://app.brandmark.io/nounpreview/28122.png"/>
    </g>
  </g></g></svg>